<svg version="1.1" id="Layer_1" xmlns="http://www.w3.org/2000/svg" xmlns:xlink="http://www.w3.org/1999/xlink" x="0px" y="0px"
	 width="100%" viewBox="0 0 1024 1024" enable-background="new 0 0 1024 1024" xml:space="preserve">
<path fill="#000000" opacity="1.000000" stroke="none" 
	d="
M353.674438,252.517303 
	C382.834808,241.106369 412.577606,235.067276 443.628876,235.581223 
	C463.788696,235.914902 483.958740,235.606506 504.123413,235.719742 
	C505.916016,235.729797 509.026855,234.281815 509.156067,237.864609 
	C509.267975,240.967957 506.460815,240.137146 504.657959,240.337143 
	C487.805664,242.206680 479.360992,251.518799 479.358368,268.498932 
	C479.341034,380.158142 479.347443,491.817352 479.363861,603.476562 
	C479.364136,605.258240 479.012848,607.117432 480.058350,609.114502 
	C486.878418,608.246216 493.411957,606.315918 499.825378,604.205627 
	C511.991791,600.202515 523.988220,595.685425 536.106812,591.532532 
	C539.685913,590.306030 540.749268,588.158203 540.744873,584.446167 
	C540.654114,507.784760 540.712341,431.123169 540.664368,354.461731 
	C540.655273,339.870544 532.736450,331.152954 518.307434,329.304413 
	C516.384583,329.058075 513.708008,329.157135 514.062134,326.349762 
	C514.381348,323.818817 516.991821,324.707062 518.640442,324.701538 
	C542.305298,324.621918 565.970398,324.618530 589.635437,324.607971 
	C619.291260,324.594757 648.947021,324.584320 678.602844,324.586914 
	C700.924744,324.588898 723.247192,324.692413 745.568115,324.552155 
	C749.418091,324.527985 750.914001,325.554016 751.713074,329.589050 
	C755.258972,347.494598 759.324036,365.296936 763.089783,383.160156 
	C763.419128,384.722473 764.708435,387.176422 762.125549,387.862823 
	C759.593384,388.535736 759.375610,385.898163 758.895264,384.288635 
	C755.669800,373.481415 750.447144,363.694092 744.142944,354.402039 
	C733.575989,338.826813 718.251343,331.747528 700.135559,330.463348 
	C665.531372,328.010437 630.855957,329.676453 596.213623,329.456055 
	C580.717285,329.357422 571.410950,339.158112 571.392456,354.718811 
	C571.305481,427.880463 571.351807,501.042328 571.363403,574.204102 
	C571.363586,575.340576 571.526001,576.477112 571.649048,578.091187 
	C579.895813,575.774109 587.808350,573.465454 595.767822,571.332153 
	C613.345642,566.620789 631.302185,564.510803 649.439941,563.653381 
	C655.592590,563.362488 661.687500,562.483276 667.591919,560.700500 
	C680.600220,556.772827 687.790833,547.857483 689.661194,534.505005 
	C689.904236,532.769775 689.566406,530.726257 692.087952,530.134888 
	C694.015503,531.420288 693.303833,533.428223 693.308655,535.098389 
	C693.367065,555.430176 693.347473,575.762207 693.343811,596.094177 
	C693.343628,596.926880 693.341980,597.763306 693.267151,598.591309 
	C693.161316,599.763367 693.073120,601.049438 691.404175,600.942383 
	C690.144409,600.861572 689.854553,599.872986 689.746521,598.829712 
	C689.643677,597.836121 689.651184,596.826416 689.487122,595.844421 
	C686.985352,580.871277 678.035400,572.503479 661.756836,570.365540 
	C636.716736,567.077026 612.380676,571.153381 588.346130,577.868469 
	C567.791687,583.611145 548.186584,592.020996 528.228760,599.434326 
	C513.712402,604.826355 498.980103,609.517639 483.907166,613.033325 
	C480.432190,613.843872 479.270874,615.231873 479.294067,618.698242 
	C479.417938,637.196228 478.906891,655.709656 479.497131,674.189575 
	C479.959015,688.651794 483.862396,698.211853 497.954834,702.173767 
	C500.818573,702.978882 503.842377,703.216736 506.794128,703.705505 
	C508.017395,703.907959 509.175537,704.220093 508.948700,705.815979 
	C508.768799,707.081787 507.686188,707.214905 506.684235,707.277710 
	C505.521393,707.350586 504.352753,707.347900 503.186615,707.348206 
	C477.355042,707.354675 451.523438,707.358032 425.691864,707.357239 
	C424.525696,707.357239 423.357697,707.345764 422.193817,707.281006 
	C420.945801,707.211548 419.857849,706.883728 419.843231,705.314148 
	C419.830719,703.970459 420.850494,703.730347 421.833679,703.537964 
	C424.764038,702.964661 427.738678,702.578796 430.631897,701.861267 
	C442.054932,699.028198 448.245575,692.081177 448.540253,680.313354 
	C449.011566,661.492249 448.808014,642.654846 449.004547,623.825562 
	C449.041351,620.300293 447.597687,619.082581 444.206299,619.317078 
	C433.742645,620.040405 423.313263,620.110413 412.791168,619.528625 
	C382.938263,617.877930 355.126495,609.531189 329.435974,594.603333 
	C281.372864,566.675537 249.960526,525.763245 239.447250,470.981537 
	C228.741409,415.196533 237.024078,362.218781 270.669556,314.998535 
	C290.423615,287.274414 317.161987,268.115265 348.261383,254.791794 
	C349.942810,254.071442 351.628998,253.362350 353.674438,252.517303 
M285.827881,553.672180 
	C298.604065,567.695129 313.199585,579.482544 329.547302,589.085876 
	C365.452057,610.177917 404.349945,617.704529 445.594635,614.714233 
	C448.505859,614.503174 449.104095,613.469482 449.100189,610.739746 
	C448.996887,538.753174 449.009888,466.766479 448.943115,394.779846 
	C448.903870,352.454285 448.786346,310.128754 448.654724,267.803314 
	C448.600616,250.400482 440.741180,242.620987 423.298065,242.204880 
	C401.109161,241.675598 380.111938,247.216034 359.612976,254.876419 
	C325.798706,267.512695 296.746857,286.982086 275.340759,316.500275 
	C244.346909,359.239532 234.774445,407.408905 241.623581,459.010101 
	C246.364517,494.728180 261.285309,526.176880 285.827881,553.672180 
z"/>
<path fill="#000000" opacity="1.000000" stroke="none" 
	d="
M540.662720,673.999878 
	C540.665222,652.845276 540.763428,632.189819 540.588562,611.536682 
	C540.554626,607.525696 541.921204,605.544800 545.708252,604.324951 
	C552.514160,602.132690 559.306335,599.965210 566.256470,598.241089 
	C570.063660,597.296631 571.464478,598.230591 571.384460,602.175598 
	C571.232544,609.668030 571.347717,617.165955 571.347839,624.661560 
	C571.348938,676.464722 571.331604,728.267822 571.360413,780.070984 
	C571.368286,794.230896 578.046997,803.265137 590.564636,806.166504 
	C592.327271,806.575073 594.189758,806.543640 596.002136,806.749939 
	C597.777893,806.952087 600.025635,806.712341 600.065308,809.341370 
	C600.111206,812.387756 597.586243,811.843079 595.697632,812.060669 
	C595.203979,812.117493 594.699219,812.084351 594.199585,812.084106 
	C569.547363,812.073669 544.895203,812.063110 520.242981,812.047852 
	C519.077332,812.047119 517.904480,812.075317 516.747620,811.961487 
	C514.985657,811.788086 512.781433,812.062805 512.849182,809.294312 
	C512.915710,806.577271 515.094299,806.869385 516.863892,806.708313 
	C532.445312,805.289368 540.627014,796.503906 540.645386,780.938293 
	C540.687317,745.458923 540.661377,709.979370 540.662720,673.999878 
z"/>
</svg>